<?xml version="1.0" encoding="utf-8"?>
<svg viewBox="0 0 385 213" fill="none" xmlns="http://www.w3.org/2000/svg">
  <rect x="0.5" y="0.5" width="384" height="211.999" rx="6.5" fill="#FFFDE9" transform="matrix(0.9999999999999999, 0, 0, 0.9999999999999999, -3.552713678800501e-15, 0)"/>
  <path d="M186.5 76.4993C188.367 76.4993 189.936 75.2195 190.377 73.4891C190.513 72.9539 190.948 72.4993 191.5 72.4993H198.5M186.5 76.4993C184.291 76.4993 182.5 74.7084 182.5 72.4993V59.4993C182.5 57.8424 183.843 56.4993 185.5 56.4993H195.5C197.157 56.4993 198.5 57.8424 198.5 59.4993V72.4993M186.5 76.4993H198.5C200.367 76.4993 201.936 75.2195 202.377 73.4891C202.513 72.9539 202.052 72.4993 201.5 72.4993H198.5M187.5 64.4993L189.086 62.9135C189.867 62.1324 191.133 62.1324 191.914 62.9135L193.5 64.4993M190.5 62.4993V67.4993" stroke="#A9ACB3" stroke-width="1.5" stroke-linecap="round" transform="matrix(0.9999999999999999, 0, 0, 0.9999999999999999, -3.552713678800501e-15, 0)"/>
  <path d="M112.045 119.809C113.059 119.809 113.565 119.463 113.565 118.769C113.565 118.556 113.519 118.376 113.425 118.229C113.339 118.076 113.219 117.946 113.065 117.839C112.912 117.726 112.735 117.629 112.535 117.549C112.342 117.469 112.135 117.389 111.915 117.309C111.662 117.223 111.422 117.126 111.195 117.019C110.969 116.906 110.772 116.776 110.605 116.629C110.439 116.476 110.305 116.296 110.205 116.089C110.112 115.883 110.065 115.633 110.065 115.339C110.065 114.733 110.272 114.259 110.685 113.919C111.099 113.579 111.669 113.409 112.395 113.409C112.815 113.409 113.195 113.456 113.535 113.549C113.882 113.636 114.135 113.733 114.295 113.839L113.985 114.629C113.845 114.543 113.635 114.459 113.355 114.379C113.082 114.293 112.762 114.249 112.395 114.249C112.209 114.249 112.035 114.269 111.875 114.309C111.715 114.349 111.575 114.409 111.455 114.489C111.335 114.569 111.239 114.673 111.165 114.799C111.099 114.919 111.065 115.063 111.065 115.229C111.065 115.416 111.102 115.573 111.175 115.699C111.249 115.826 111.352 115.939 111.485 116.039C111.619 116.133 111.772 116.219 111.945 116.299C112.125 116.379 112.322 116.459 112.535 116.539C112.835 116.659 113.109 116.779 113.355 116.899C113.609 117.019 113.825 117.163 114.005 117.329C114.192 117.496 114.335 117.696 114.435 117.929C114.535 118.156 114.585 118.433 114.585 118.759C114.585 119.366 114.362 119.833 113.915 120.159C113.475 120.486 112.852 120.649 112.045 120.649C111.772 120.649 111.519 120.629 111.285 120.589C111.059 120.556 110.855 120.516 110.675 120.469C110.495 120.416 110.339 120.363 110.205 120.309C110.079 120.249 109.979 120.199 109.905 120.159L110.195 119.359C110.349 119.446 110.582 119.543 110.895 119.649C111.209 119.756 111.592 119.809 112.045 119.809ZM119.837 120.349C119.624 120.403 119.341 120.459 118.987 120.519C118.641 120.579 118.237 120.609 117.777 120.609C117.377 120.609 117.041 120.553 116.767 120.439C116.494 120.319 116.274 120.153 116.107 119.939C115.941 119.726 115.821 119.476 115.747 119.189C115.674 118.896 115.637 118.573 115.637 118.219V115.299H116.567V118.019C116.567 118.653 116.667 119.106 116.867 119.379C117.067 119.653 117.404 119.789 117.877 119.789C117.977 119.789 118.081 119.786 118.187 119.779C118.294 119.773 118.394 119.766 118.487 119.759C118.581 119.746 118.664 119.736 118.737 119.729C118.817 119.716 118.874 119.703 118.907 119.689V115.299H119.837V120.349ZM125.05 117.909C125.05 117.303 124.9 116.836 124.6 116.509C124.3 116.183 123.9 116.019 123.4 116.019C123.12 116.019 122.9 116.029 122.74 116.049C122.586 116.069 122.463 116.093 122.37 116.119V119.399C122.483 119.493 122.646 119.583 122.86 119.669C123.073 119.756 123.306 119.799 123.56 119.799C123.826 119.799 124.053 119.753 124.24 119.659C124.433 119.559 124.59 119.426 124.71 119.259C124.83 119.086 124.916 118.886 124.97 118.659C125.023 118.426 125.05 118.176 125.05 117.909ZM126.02 117.909C126.02 118.303 125.966 118.666 125.86 118.999C125.76 119.333 125.61 119.619 125.41 119.859C125.21 120.099 124.963 120.286 124.67 120.419C124.383 120.553 124.053 120.619 123.68 120.619C123.38 120.619 123.113 120.579 122.88 120.499C122.653 120.419 122.483 120.343 122.37 120.269V122.349H121.44V115.459C121.66 115.406 121.933 115.349 122.26 115.289C122.593 115.223 122.976 115.189 123.41 115.189C123.81 115.189 124.17 115.253 124.49 115.379C124.81 115.506 125.083 115.686 125.31 115.919C125.536 116.153 125.71 116.439 125.83 116.779C125.956 117.113 126.02 117.489 126.02 117.909ZM130.938 117.909C130.938 117.303 130.788 116.836 130.488 116.509C130.188 116.183 129.788 116.019 129.288 116.019C129.008 116.019 128.788 116.029 128.628 116.049C128.475 116.069 128.352 116.093 128.258 116.119V119.399C128.372 119.493 128.535 119.583 128.748 119.669C128.962 119.756 129.195 119.799 129.448 119.799C129.715 119.799 129.942 119.753 130.128 119.659C130.322 119.559 130.478 119.426 130.598 119.259C130.718 119.086 130.805 118.886 130.858 118.659C130.912 118.426 130.938 118.176 130.938 117.909ZM131.908 117.909C131.908 118.303 131.855 118.666 131.748 118.999C131.648 119.333 131.498 119.619 131.298 119.859C131.098 120.099 130.852 120.286 130.558 120.419C130.272 120.553 129.942 120.619 129.568 120.619C129.268 120.619 129.002 120.579 128.768 120.499C128.542 120.419 128.372 120.343 128.258 120.269V122.349H127.328V115.459C127.548 115.406 127.822 115.349 128.148 115.289C128.482 115.223 128.865 115.189 129.298 115.189C129.698 115.189 130.058 115.253 130.378 115.379C130.698 115.506 130.972 115.686 131.198 115.919C131.425 116.153 131.598 116.439 131.718 116.779C131.845 117.113 131.908 117.489 131.908 117.909ZM137.807 117.899C137.807 118.313 137.747 118.686 137.627 119.019C137.507 119.353 137.337 119.639 137.117 119.879C136.904 120.119 136.647 120.306 136.347 120.439C136.047 120.566 135.72 120.629 135.367 120.629C135.014 120.629 134.687 120.566 134.387 120.439C134.087 120.306 133.827 120.119 133.607 119.879C133.394 119.639 133.227 119.353 133.107 119.019C132.987 118.686 132.927 118.313 132.927 117.899C132.927 117.493 132.987 117.123 133.107 116.789C133.227 116.449 133.394 116.159 133.607 115.919C133.827 115.679 134.087 115.496 134.387 115.369C134.687 115.236 135.014 115.169 135.367 115.169C135.72 115.169 136.047 115.236 136.347 115.369C136.647 115.496 136.904 115.679 137.117 115.919C137.337 116.159 137.507 116.449 137.627 116.789C137.747 117.123 137.807 117.493 137.807 117.899ZM136.837 117.899C136.837 117.313 136.704 116.849 136.437 116.509C136.177 116.163 135.82 115.989 135.367 115.989C134.914 115.989 134.554 116.163 134.287 116.509C134.027 116.849 133.897 117.313 133.897 117.899C133.897 118.486 134.027 118.953 134.287 119.299C134.554 119.639 134.914 119.809 135.367 119.809C135.82 119.809 136.177 119.639 136.437 119.299C136.704 118.953 136.837 118.486 136.837 117.899ZM141.035 115.189C141.115 115.189 141.205 115.196 141.305 115.209C141.412 115.216 141.515 115.229 141.615 115.249C141.715 115.263 141.805 115.279 141.885 115.299C141.972 115.313 142.035 115.326 142.075 115.339L141.915 116.149C141.842 116.123 141.719 116.093 141.545 116.059C141.379 116.019 141.162 115.999 140.895 115.999C140.722 115.999 140.549 116.019 140.375 116.059C140.209 116.093 140.099 116.116 140.045 116.129V120.499H139.115V115.519C139.335 115.439 139.609 115.366 139.935 115.299C140.262 115.226 140.629 115.189 141.035 115.189ZM143.843 115.299H145.813V116.079H143.843V118.479C143.843 118.739 143.863 118.956 143.903 119.129C143.943 119.296 144.003 119.429 144.083 119.529C144.163 119.623 144.263 119.689 144.383 119.729C144.503 119.769 144.643 119.789 144.803 119.789C145.083 119.789 145.306 119.759 145.473 119.699C145.646 119.633 145.766 119.586 145.833 119.559L146.013 120.329C145.92 120.376 145.756 120.433 145.523 120.499C145.29 120.573 145.023 120.609 144.723 120.609C144.37 120.609 144.076 120.566 143.843 120.479C143.616 120.386 143.433 120.249 143.293 120.069C143.153 119.889 143.053 119.669 142.993 119.409C142.94 119.143 142.913 118.836 142.913 118.489V113.849L143.843 113.689V115.299ZM146.609 117.909C146.609 117.449 146.675 117.049 146.809 116.709C146.942 116.363 147.119 116.076 147.339 115.849C147.559 115.623 147.812 115.453 148.099 115.339C148.385 115.226 148.679 115.169 148.979 115.169C149.679 115.169 150.215 115.389 150.589 115.829C150.962 116.263 151.149 116.926 151.149 117.819C151.149 117.859 151.149 117.913 151.149 117.979C151.149 118.039 151.145 118.096 151.139 118.149H147.579C147.619 118.689 147.775 119.099 148.049 119.379C148.322 119.659 148.749 119.799 149.329 119.799C149.655 119.799 149.929 119.773 150.149 119.719C150.375 119.659 150.545 119.603 150.659 119.549L150.789 120.329C150.675 120.389 150.475 120.453 150.189 120.519C149.909 120.586 149.589 120.619 149.229 120.619C148.775 120.619 148.382 120.553 148.049 120.419C147.722 120.279 147.452 120.089 147.239 119.849C147.025 119.609 146.865 119.326 146.759 118.999C146.659 118.666 146.609 118.303 146.609 117.909ZM150.179 117.399C150.185 116.979 150.079 116.636 149.859 116.369C149.645 116.096 149.349 115.959 148.969 115.959C148.755 115.959 148.565 116.003 148.399 116.089C148.239 116.169 148.102 116.276 147.989 116.409C147.875 116.543 147.785 116.696 147.719 116.869C147.659 117.043 147.619 117.219 147.599 117.399H150.179ZM155.845 116.399C155.731 116.306 155.568 116.216 155.355 116.129C155.141 116.043 154.908 115.999 154.655 115.999C154.388 115.999 154.158 116.049 153.965 116.149C153.778 116.243 153.625 116.376 153.505 116.549C153.385 116.716 153.298 116.916 153.245 117.149C153.191 117.383 153.165 117.633 153.165 117.899C153.165 118.506 153.315 118.976 153.615 119.309C153.915 119.636 154.315 119.799 154.815 119.799C155.068 119.799 155.278 119.789 155.445 119.769C155.618 119.743 155.751 119.716 155.845 119.689V116.399ZM155.845 112.899L156.775 112.739V120.349C156.561 120.409 156.288 120.469 155.955 120.529C155.621 120.589 155.238 120.619 154.805 120.619C154.405 120.619 154.045 120.556 153.725 120.429C153.405 120.303 153.131 120.123 152.905 119.889C152.678 119.656 152.501 119.373 152.375 119.039C152.255 118.699 152.195 118.319 152.195 117.899C152.195 117.499 152.245 117.133 152.345 116.799C152.451 116.466 152.605 116.179 152.805 115.939C153.005 115.699 153.248 115.513 153.535 115.379C153.828 115.246 154.161 115.179 154.535 115.179C154.835 115.179 155.098 115.219 155.325 115.299C155.558 115.379 155.731 115.456 155.845 115.529V112.899ZM160.748 120.499V113.569H164.928V114.399H161.718V116.489H164.568V117.309H161.718V120.499H160.748ZM170.512 117.899C170.512 118.313 170.452 118.686 170.332 119.019C170.212 119.353 170.042 119.639 169.822 119.879C169.609 120.119 169.352 120.306 169.052 120.439C168.752 120.566 168.425 120.629 168.072 120.629C167.719 120.629 167.392 120.566 167.092 120.439C166.792 120.306 166.532 120.119 166.312 119.879C166.099 119.639 165.932 119.353 165.812 119.019C165.692 118.686 165.632 118.313 165.632 117.899C165.632 117.493 165.692 117.123 165.812 116.789C165.932 116.449 166.099 116.159 166.312 115.919C166.532 115.679 166.792 115.496 167.092 115.369C167.392 115.236 167.719 115.169 168.072 115.169C168.425 115.169 168.752 115.236 169.052 115.369C169.352 115.496 169.609 115.679 169.822 115.919C170.042 116.159 170.212 116.449 170.332 116.789C170.452 117.123 170.512 117.493 170.512 117.899ZM169.542 117.899C169.542 117.313 169.409 116.849 169.142 116.509C168.882 116.163 168.525 115.989 168.072 115.989C167.619 115.989 167.259 116.163 166.992 116.509C166.732 116.849 166.602 117.313 166.602 117.899C166.602 118.486 166.732 118.953 166.992 119.299C167.259 119.639 167.619 119.809 168.072 119.809C168.525 119.809 168.882 119.639 169.142 119.299C169.409 118.953 169.542 118.486 169.542 117.899ZM173.741 115.189C173.821 115.189 173.911 115.196 174.011 115.209C174.117 115.216 174.221 115.229 174.321 115.249C174.421 115.263 174.511 115.279 174.591 115.299C174.677 115.313 174.741 115.326 174.781 115.339L174.621 116.149C174.547 116.123 174.424 116.093 174.251 116.059C174.084 116.019 173.867 115.999 173.601 115.999C173.427 115.999 173.254 116.019 173.081 116.059C172.914 116.093 172.804 116.116 172.751 116.129V120.499H171.821V115.519C172.041 115.439 172.314 115.366 172.641 115.299C172.967 115.226 173.334 115.189 173.741 115.189ZM175.678 115.449C175.891 115.396 176.171 115.339 176.518 115.279C176.871 115.219 177.278 115.189 177.738 115.189C178.071 115.189 178.351 115.236 178.578 115.329C178.805 115.416 178.995 115.546 179.148 115.719C179.195 115.686 179.268 115.639 179.368 115.579C179.468 115.519 179.591 115.463 179.738 115.409C179.885 115.349 180.048 115.299 180.228 115.259C180.408 115.213 180.601 115.189 180.808 115.189C181.208 115.189 181.535 115.249 181.788 115.369C182.041 115.483 182.238 115.646 182.378 115.859C182.525 116.073 182.621 116.326 182.668 116.619C182.721 116.913 182.748 117.233 182.748 117.579V120.499H181.818V117.779C181.818 117.473 181.801 117.209 181.768 116.989C181.741 116.769 181.685 116.586 181.598 116.439C181.518 116.293 181.405 116.186 181.258 116.119C181.118 116.046 180.935 116.009 180.708 116.009C180.395 116.009 180.135 116.053 179.928 116.139C179.728 116.219 179.591 116.293 179.518 116.359C179.571 116.533 179.611 116.723 179.638 116.929C179.665 117.136 179.678 117.353 179.678 117.579V120.499H178.748V117.779C178.748 117.473 178.731 117.209 178.698 116.989C178.665 116.769 178.605 116.586 178.518 116.439C178.438 116.293 178.325 116.186 178.178 116.119C178.038 116.046 177.858 116.009 177.638 116.009C177.545 116.009 177.445 116.013 177.338 116.019C177.231 116.026 177.128 116.036 177.028 116.049C176.935 116.056 176.848 116.066 176.768 116.079C176.688 116.093 176.635 116.103 176.608 116.109V120.499H175.678V115.449ZM186.051 119.829C186.271 119.829 186.465 119.826 186.631 119.819C186.805 119.806 186.948 119.786 187.061 119.759V118.209C186.995 118.176 186.885 118.149 186.731 118.129C186.585 118.103 186.405 118.089 186.191 118.089C186.051 118.089 185.901 118.099 185.741 118.119C185.588 118.139 185.445 118.183 185.311 118.249C185.185 118.309 185.078 118.396 184.991 118.509C184.905 118.616 184.861 118.759 184.861 118.939C184.861 119.273 184.968 119.506 185.181 119.639C185.395 119.766 185.685 119.829 186.051 119.829ZM185.971 115.169C186.345 115.169 186.658 115.219 186.911 115.319C187.171 115.413 187.378 115.549 187.531 115.729C187.691 115.903 187.805 116.113 187.871 116.359C187.938 116.599 187.971 116.866 187.971 117.159V120.409C187.891 120.423 187.778 120.443 187.631 120.469C187.491 120.489 187.331 120.509 187.151 120.529C186.971 120.549 186.775 120.566 186.561 120.579C186.355 120.599 186.148 120.609 185.941 120.609C185.648 120.609 185.378 120.579 185.131 120.519C184.885 120.459 184.671 120.366 184.491 120.239C184.311 120.106 184.171 119.933 184.071 119.719C183.971 119.506 183.921 119.249 183.921 118.949C183.921 118.663 183.978 118.416 184.091 118.209C184.211 118.003 184.371 117.836 184.571 117.709C184.771 117.583 185.005 117.489 185.271 117.429C185.538 117.369 185.818 117.339 186.111 117.339C186.205 117.339 186.301 117.346 186.401 117.359C186.501 117.366 186.595 117.379 186.681 117.399C186.775 117.413 186.855 117.426 186.921 117.439C186.988 117.453 187.035 117.463 187.061 117.469V117.209C187.061 117.056 187.045 116.906 187.011 116.759C186.978 116.606 186.918 116.473 186.831 116.359C186.745 116.239 186.625 116.146 186.471 116.079C186.325 116.006 186.131 115.969 185.891 115.969C185.585 115.969 185.315 115.993 185.081 116.039C184.855 116.079 184.685 116.123 184.571 116.169L184.461 115.399C184.581 115.346 184.781 115.296 185.061 115.249C185.341 115.196 185.645 115.169 185.971 115.169ZM190.386 115.299H192.356V116.079H190.386V118.479C190.386 118.739 190.406 118.956 190.446 119.129C190.486 119.296 190.546 119.429 190.626 119.529C190.706 119.623 190.806 119.689 190.926 119.729C191.046 119.769 191.186 119.789 191.346 119.789C191.626 119.789 191.849 119.759 192.016 119.699C192.189 119.633 192.309 119.586 192.376 119.559L192.556 120.329C192.462 120.376 192.299 120.433 192.066 120.499C191.832 120.573 191.566 120.609 191.266 120.609C190.912 120.609 190.619 120.566 190.386 120.479C190.159 120.386 189.976 120.249 189.836 120.069C189.696 119.889 189.596 119.669 189.536 119.409C189.482 119.143 189.456 118.836 189.456 118.489V113.849L190.386 113.689V115.299ZM199.244 118.269C199.244 118.603 199.207 118.913 199.134 119.199C199.067 119.486 198.944 119.739 198.764 119.959C198.59 120.173 198.354 120.343 198.054 120.469C197.76 120.589 197.39 120.649 196.944 120.649C196.717 120.649 196.507 120.629 196.314 120.589C196.127 120.556 195.957 120.513 195.804 120.459C195.65 120.399 195.517 120.339 195.404 120.279C195.29 120.213 195.2 120.149 195.134 120.089L195.514 119.319C195.654 119.419 195.834 119.526 196.054 119.639C196.28 119.746 196.56 119.799 196.894 119.799C197.374 119.799 197.724 119.679 197.944 119.439C198.164 119.193 198.274 118.773 198.274 118.179V113.569H199.244V118.269ZM202.754 113.499C203.727 113.499 204.474 113.686 204.994 114.059C205.52 114.426 205.784 114.976 205.784 115.709C205.784 116.109 205.71 116.453 205.564 116.739C205.424 117.019 205.217 117.249 204.944 117.429C204.677 117.603 204.35 117.729 203.964 117.809C203.577 117.889 203.14 117.929 202.654 117.929H201.884V120.499H200.914V113.669C201.187 113.603 201.49 113.559 201.824 113.539C202.164 113.513 202.474 113.499 202.754 113.499ZM202.834 114.349C202.42 114.349 202.104 114.359 201.884 114.379V117.099H202.614C202.947 117.099 203.247 117.079 203.514 117.039C203.78 116.993 204.004 116.919 204.184 116.819C204.37 116.713 204.514 116.569 204.614 116.389C204.714 116.209 204.764 115.979 204.764 115.699C204.764 115.433 204.71 115.213 204.604 115.039C204.504 114.866 204.364 114.729 204.184 114.629C204.01 114.523 203.807 114.449 203.574 114.409C203.34 114.369 203.094 114.349 202.834 114.349ZM206.998 120.499V113.569H211.228V114.399H207.968V116.459H210.868V117.269H207.968V119.669H211.478V120.499H206.998ZM216.657 117.089H217.627V120.329C217.547 120.356 217.431 120.386 217.277 120.419C217.131 120.453 216.957 120.486 216.757 120.519C216.564 120.553 216.351 120.579 216.117 120.599C215.884 120.626 215.647 120.639 215.407 120.639C214.921 120.639 214.477 120.559 214.077 120.399C213.677 120.239 213.334 120.006 213.047 119.699C212.761 119.393 212.537 119.016 212.377 118.569C212.224 118.123 212.147 117.609 212.147 117.029C212.147 116.449 212.234 115.936 212.407 115.489C212.587 115.036 212.827 114.656 213.127 114.349C213.427 114.043 213.777 113.809 214.177 113.649C214.584 113.489 215.017 113.409 215.477 113.409C215.791 113.409 216.067 113.429 216.307 113.469C216.554 113.509 216.764 113.556 216.937 113.609C217.111 113.663 217.251 113.716 217.357 113.769C217.471 113.823 217.547 113.863 217.587 113.889L217.277 114.699C217.084 114.573 216.827 114.469 216.507 114.389C216.187 114.303 215.861 114.259 215.527 114.259C215.174 114.259 214.851 114.323 214.557 114.449C214.271 114.576 214.024 114.759 213.817 114.999C213.617 115.239 213.461 115.533 213.347 115.879C213.234 116.219 213.177 116.603 213.177 117.029C213.177 117.443 213.224 117.819 213.317 118.159C213.417 118.499 213.564 118.793 213.757 119.039C213.957 119.279 214.201 119.466 214.487 119.599C214.781 119.733 215.124 119.799 215.517 119.799C215.797 119.799 216.034 119.786 216.227 119.759C216.427 119.726 216.571 119.696 216.657 119.669V117.089ZM220.066 119.359C220.073 119.413 220.076 119.466 220.076 119.519C220.076 119.566 220.076 119.616 220.076 119.669C220.076 120.089 220.013 120.503 219.886 120.909C219.766 121.323 219.599 121.716 219.386 122.089L218.666 121.859C218.833 121.519 218.943 121.173 218.996 120.819C219.049 120.473 219.076 120.146 219.076 119.839C219.076 119.753 219.073 119.669 219.066 119.589C219.066 119.509 219.063 119.433 219.056 119.359H220.066ZM225.762 113.499C226.735 113.499 227.482 113.686 228.002 114.059C228.528 114.426 228.792 114.976 228.792 115.709C228.792 116.109 228.718 116.453 228.572 116.739C228.432 117.019 228.225 117.249 227.952 117.429C227.685 117.603 227.358 117.729 226.972 117.809C226.585 117.889 226.148 117.929 225.662 117.929H224.892V120.499H223.922V113.669C224.195 113.603 224.498 113.559 224.832 113.539C225.172 113.513 225.482 113.499 225.762 113.499ZM225.842 114.349C225.428 114.349 225.112 114.359 224.892 114.379V117.099H225.622C225.955 117.099 226.255 117.079 226.522 117.039C226.788 116.993 227.012 116.919 227.192 116.819C227.378 116.713 227.522 116.569 227.622 116.389C227.722 116.209 227.772 115.979 227.772 115.699C227.772 115.433 227.718 115.213 227.612 115.039C227.512 114.866 227.372 114.729 227.192 114.629C227.018 114.523 226.815 114.449 226.582 114.409C226.348 114.369 226.102 114.349 225.842 114.349ZM234.756 120.499C234.609 120.253 234.439 119.976 234.246 119.669C234.059 119.363 233.856 119.046 233.636 118.719C233.416 118.386 233.186 118.049 232.946 117.709C232.712 117.369 232.479 117.043 232.246 116.729C232.012 116.409 231.786 116.109 231.566 115.829C231.346 115.549 231.142 115.303 230.956 115.089V120.499H230.006V113.569H230.776C231.089 113.903 231.422 114.293 231.776 114.739C232.136 115.179 232.489 115.636 232.836 116.109C233.189 116.576 233.519 117.036 233.826 117.489C234.139 117.943 234.402 118.346 234.616 118.699V113.569H235.566V120.499H234.756ZM241.511 117.089H242.481V120.329C242.401 120.356 242.284 120.386 242.131 120.419C241.984 120.453 241.811 120.486 241.611 120.519C241.418 120.553 241.204 120.579 240.971 120.599C240.738 120.626 240.501 120.639 240.261 120.639C239.774 120.639 239.331 120.559 238.931 120.399C238.531 120.239 238.188 120.006 237.901 119.699C237.614 119.393 237.391 119.016 237.231 118.569C237.078 118.123 237.001 117.609 237.001 117.029C237.001 116.449 237.088 115.936 237.261 115.489C237.441 115.036 237.681 114.656 237.981 114.349C238.281 114.043 238.631 113.809 239.031 113.649C239.438 113.489 239.871 113.409 240.331 113.409C240.644 113.409 240.921 113.429 241.161 113.469C241.408 113.509 241.618 113.556 241.791 113.609C241.964 113.663 242.104 113.716 242.211 113.769C242.324 113.823 242.401 113.863 242.441 113.889L242.131 114.699C241.938 114.573 241.681 114.469 241.361 114.389C241.041 114.303 240.714 114.259 240.381 114.259C240.028 114.259 239.704 114.323 239.411 114.449C239.124 114.576 238.878 114.759 238.671 114.999C238.471 115.239 238.314 115.533 238.201 115.879C238.088 116.219 238.031 116.603 238.031 117.029C238.031 117.443 238.078 117.819 238.171 118.159C238.271 118.499 238.418 118.793 238.611 119.039C238.811 119.279 239.054 119.466 239.341 119.599C239.634 119.733 239.978 119.799 240.371 119.799C240.651 119.799 240.888 119.786 241.081 119.759C241.281 119.726 241.424 119.696 241.511 119.669V117.089ZM244.92 119.359C244.926 119.413 244.93 119.466 244.93 119.519C244.93 119.566 244.93 119.616 244.93 119.669C244.93 120.089 244.866 120.503 244.74 120.909C244.62 121.323 244.453 121.716 244.24 122.089L243.52 121.859C243.686 121.519 243.796 121.173 243.85 120.819C243.903 120.473 243.93 120.146 243.93 119.839C243.93 119.753 243.926 119.669 243.92 119.589C243.92 119.509 243.916 119.433 243.91 119.359H244.92ZM252.565 115.799C252.285 116.693 252.002 117.519 251.715 118.279C251.428 119.039 251.142 119.779 250.855 120.499H249.885C249.532 119.479 249.218 118.403 248.945 117.269C248.678 116.136 248.428 114.903 248.195 113.569H249.215C249.308 114.089 249.405 114.609 249.505 115.129C249.605 115.649 249.708 116.156 249.815 116.649C249.922 117.136 250.028 117.603 250.135 118.049C250.242 118.496 250.352 118.909 250.465 119.289C250.732 118.589 251.015 117.823 251.315 116.989C251.615 116.149 251.895 115.283 252.155 114.389H252.995C253.255 115.283 253.538 116.149 253.845 116.989C254.152 117.823 254.438 118.589 254.705 119.289C254.812 118.916 254.918 118.506 255.025 118.059C255.132 117.613 255.235 117.146 255.335 116.659C255.442 116.166 255.545 115.659 255.645 115.139C255.745 114.613 255.842 114.089 255.935 113.569H256.925C256.685 114.903 256.428 116.136 256.155 117.269C255.888 118.403 255.582 119.479 255.235 120.499H254.265C253.972 119.779 253.685 119.039 253.405 118.279C253.125 117.519 252.845 116.693 252.565 115.799ZM258.062 120.499V113.569H262.292V114.399H259.032V116.459H261.932V117.269H259.032V119.669H262.542V120.499H258.062ZM265.645 120.559C265.505 120.559 265.352 120.556 265.185 120.549C265.025 120.543 264.862 120.533 264.695 120.519C264.535 120.506 264.375 120.489 264.215 120.469C264.055 120.449 263.908 120.423 263.775 120.389V113.669C263.908 113.636 264.055 113.609 264.215 113.589C264.375 113.569 264.535 113.553 264.695 113.539C264.862 113.526 265.025 113.516 265.185 113.509C265.345 113.503 265.495 113.499 265.635 113.499C266.035 113.499 266.408 113.529 266.755 113.589C267.108 113.649 267.412 113.753 267.665 113.899C267.925 114.039 268.128 114.226 268.275 114.459C268.422 114.693 268.495 114.979 268.495 115.319C268.495 115.699 268.405 116.013 268.225 116.259C268.045 116.499 267.805 116.679 267.505 116.799C267.912 116.919 268.235 117.109 268.475 117.369C268.715 117.629 268.835 117.996 268.835 118.469C268.835 119.163 268.578 119.686 268.065 120.039C267.558 120.386 266.752 120.559 265.645 120.559ZM264.735 117.269V119.709C264.808 119.716 264.895 119.723 264.995 119.729C265.082 119.736 265.182 119.743 265.295 119.749C265.415 119.749 265.552 119.749 265.705 119.749C265.992 119.749 266.262 119.733 266.515 119.699C266.775 119.659 267.002 119.593 267.195 119.499C267.388 119.406 267.542 119.276 267.655 119.109C267.775 118.943 267.835 118.733 267.835 118.479C267.835 118.253 267.792 118.063 267.705 117.909C267.618 117.749 267.492 117.623 267.325 117.529C267.165 117.436 266.972 117.369 266.745 117.329C266.518 117.289 266.265 117.269 265.985 117.269H264.735ZM264.735 116.489H265.755C265.995 116.489 266.222 116.473 266.435 116.439C266.648 116.406 266.832 116.346 266.985 116.259C267.145 116.173 267.268 116.059 267.355 115.919C267.448 115.779 267.495 115.603 267.495 115.389C267.495 115.189 267.448 115.023 267.355 114.889C267.262 114.749 267.132 114.639 266.965 114.559C266.805 114.473 266.615 114.409 266.395 114.369C266.175 114.329 265.942 114.309 265.695 114.309C265.448 114.309 265.255 114.313 265.115 114.319C264.975 114.326 264.848 114.336 264.735 114.349V116.489ZM272.041 113.499C273.014 113.499 273.761 113.686 274.281 114.059C274.807 114.426 275.071 114.976 275.071 115.709C275.071 116.109 274.997 116.453 274.851 116.739C274.711 117.019 274.504 117.249 274.231 117.429C273.964 117.603 273.637 117.729 273.251 117.809C272.864 117.889 272.427 117.929 271.941 117.929H271.171V120.499H270.201V113.669C270.474 113.603 270.777 113.559 271.111 113.539C271.451 113.513 271.761 113.499 272.041 113.499ZM272.121 114.349C271.707 114.349 271.391 114.359 271.171 114.379V117.099H271.901C272.234 117.099 272.534 117.079 272.801 117.039C273.067 116.993 273.291 116.919 273.471 116.819C273.657 116.713 273.801 116.569 273.901 116.389C274.001 116.209 274.051 115.979 274.051 115.699C274.051 115.433 273.997 115.213 273.891 115.039C273.791 114.866 273.651 114.729 273.471 114.629C273.297 114.523 273.094 114.449 272.861 114.409C272.627 114.369 272.381 114.349 272.121 114.349Z" fill="#ACA6A6" transform="matrix(0.9999999999999999, 0, 0, 0.9999999999999999, -3.552713678800501e-15, 0)"/>
  <rect x="157" y="136.499" width="71" height="22" rx="5" fill="#FFDF4D" transform="matrix(0.9999999999999999, 0, 0, 0.9999999999999999, -3.552713678800501e-15, 0)"/>
  <path d="M175.45 151.571C175.282 151.571 175.098 151.567 174.898 151.559C174.706 151.551 174.51 151.539 174.31 151.523C174.118 151.507 173.926 151.487 173.734 151.463C173.542 151.439 173.366 151.407 173.206 151.367V143.303C173.366 143.263 173.542 143.231 173.734 143.207C173.926 143.183 174.118 143.163 174.31 143.147C174.51 143.131 174.706 143.119 174.898 143.111C175.09 143.103 175.27 143.099 175.438 143.099C175.918 143.099 176.366 143.135 176.782 143.207C177.206 143.279 177.57 143.403 177.874 143.579C178.186 143.747 178.43 143.971 178.606 144.251C178.782 144.531 178.87 144.875 178.87 145.283C178.87 145.739 178.762 146.115 178.546 146.411C178.33 146.699 178.042 146.915 177.682 147.059C178.17 147.203 178.558 147.431 178.846 147.743C179.134 148.055 179.278 148.495 179.278 149.063C179.278 149.895 178.97 150.523 178.354 150.947C177.746 151.363 176.778 151.571 175.45 151.571ZM174.358 147.623V150.551C174.446 150.559 174.55 150.567 174.67 150.575C174.774 150.583 174.894 150.591 175.03 150.599C175.174 150.599 175.338 150.599 175.522 150.599C175.866 150.599 176.19 150.579 176.494 150.539C176.806 150.491 177.078 150.411 177.31 150.299C177.542 150.187 177.726 150.031 177.862 149.831C178.006 149.631 178.078 149.379 178.078 149.075C178.078 148.803 178.026 148.575 177.922 148.391C177.818 148.199 177.666 148.047 177.466 147.935C177.274 147.823 177.042 147.743 176.77 147.695C176.498 147.647 176.194 147.623 175.858 147.623H174.358ZM174.358 146.687H175.582C175.87 146.687 176.142 146.667 176.398 146.627C176.654 146.587 176.874 146.515 177.058 146.411C177.25 146.307 177.398 146.171 177.502 146.003C177.614 145.835 177.67 145.623 177.67 145.367C177.67 145.127 177.614 144.927 177.502 144.767C177.39 144.599 177.234 144.467 177.034 144.371C176.842 144.267 176.614 144.191 176.35 144.143C176.086 144.095 175.806 144.071 175.51 144.071C175.214 144.071 174.982 144.075 174.814 144.083C174.646 144.091 174.494 144.103 174.358 144.119V146.687ZM183.149 145.127C183.245 145.127 183.353 145.135 183.473 145.151C183.601 145.159 183.725 145.175 183.845 145.199C183.965 145.215 184.073 145.235 184.169 145.259C184.273 145.275 184.349 145.291 184.397 145.307L184.205 146.279C184.117 146.247 183.969 146.211 183.761 146.171C183.561 146.123 183.301 146.099 182.981 146.099C182.773 146.099 182.565 146.123 182.357 146.171C182.157 146.211 182.025 146.239 181.961 146.255V151.499H180.845V145.523C181.109 145.427 181.437 145.339 181.829 145.259C182.221 145.171 182.661 145.127 183.149 145.127ZM190.982 148.379C190.982 148.875 190.91 149.323 190.766 149.723C190.622 150.123 190.418 150.467 190.154 150.755C189.898 151.043 189.59 151.267 189.23 151.427C188.87 151.579 188.478 151.655 188.054 151.655C187.63 151.655 187.238 151.579 186.878 151.427C186.518 151.267 186.206 151.043 185.942 150.755C185.686 150.467 185.486 150.123 185.342 149.723C185.198 149.323 185.126 148.875 185.126 148.379C185.126 147.891 185.198 147.447 185.342 147.047C185.486 146.639 185.686 146.291 185.942 146.003C186.206 145.715 186.518 145.495 186.878 145.343C187.238 145.183 187.63 145.103 188.054 145.103C188.478 145.103 188.87 145.183 189.23 145.343C189.59 145.495 189.898 145.715 190.154 146.003C190.418 146.291 190.622 146.639 190.766 147.047C190.91 147.447 190.982 147.891 190.982 148.379ZM189.818 148.379C189.818 147.675 189.658 147.119 189.338 146.711C189.026 146.295 188.598 146.087 188.054 146.087C187.51 146.087 187.078 146.295 186.758 146.711C186.446 147.119 186.29 147.675 186.29 148.379C186.29 149.083 186.446 149.643 186.758 150.059C187.078 150.467 187.51 150.671 188.054 150.671C188.598 150.671 189.026 150.467 189.338 150.059C189.658 149.643 189.818 149.083 189.818 148.379ZM197.499 151.499C197.275 150.923 197.035 150.267 196.779 149.531C196.531 148.787 196.303 148.015 196.095 147.215C195.887 148.015 195.659 148.787 195.411 149.531C195.163 150.267 194.927 150.923 194.703 151.499H193.731C193.363 150.675 193.003 149.735 192.651 148.679C192.299 147.623 191.967 146.483 191.655 145.259H192.855C192.935 145.635 193.031 146.043 193.143 146.483C193.255 146.923 193.371 147.363 193.491 147.803C193.619 148.243 193.751 148.667 193.887 149.075C194.023 149.483 194.151 149.839 194.271 150.143C194.407 149.767 194.539 149.371 194.667 148.955C194.803 148.531 194.931 148.107 195.051 147.683C195.171 147.251 195.283 146.831 195.387 146.423C195.499 146.007 195.595 145.619 195.675 145.259H196.599C196.671 145.619 196.759 146.007 196.863 146.423C196.967 146.831 197.079 147.251 197.199 147.683C197.319 148.107 197.443 148.531 197.571 148.955C197.707 149.371 197.843 149.767 197.979 150.143C198.099 149.839 198.223 149.483 198.351 149.075C198.487 148.667 198.619 148.243 198.747 147.803C198.875 147.363 198.995 146.923 199.107 146.483C199.219 146.043 199.315 145.635 199.395 145.259H200.547C200.235 146.483 199.903 147.623 199.551 148.679C199.199 149.735 198.839 150.675 198.471 151.499H197.499ZM203.18 150.695C203.636 150.695 203.972 150.635 204.188 150.515C204.412 150.395 204.524 150.203 204.524 149.939C204.524 149.667 204.416 149.451 204.2 149.291C203.984 149.131 203.628 148.951 203.132 148.751C202.892 148.655 202.66 148.559 202.436 148.463C202.22 148.359 202.032 148.239 201.872 148.103C201.712 147.967 201.584 147.803 201.488 147.611C201.392 147.419 201.344 147.183 201.344 146.903C201.344 146.351 201.548 145.915 201.956 145.595C202.364 145.267 202.92 145.103 203.624 145.103C203.8 145.103 203.976 145.115 204.152 145.139C204.328 145.155 204.492 145.179 204.644 145.211C204.796 145.235 204.928 145.263 205.04 145.295C205.16 145.327 205.252 145.355 205.316 145.379L205.112 146.339C204.992 146.275 204.804 146.211 204.548 146.147C204.292 146.075 203.984 146.039 203.624 146.039C203.312 146.039 203.04 146.103 202.808 146.231C202.576 146.351 202.46 146.543 202.46 146.807C202.46 146.943 202.484 147.063 202.532 147.167C202.588 147.271 202.668 147.367 202.772 147.455C202.884 147.535 203.02 147.611 203.18 147.683C203.34 147.755 203.532 147.831 203.756 147.911C204.052 148.023 204.316 148.135 204.548 148.247C204.78 148.351 204.976 148.475 205.136 148.619C205.304 148.763 205.432 148.939 205.52 149.147C205.608 149.347 205.652 149.595 205.652 149.891C205.652 150.467 205.436 150.903 205.004 151.199C204.58 151.495 203.972 151.643 203.18 151.643C202.628 151.643 202.196 151.595 201.884 151.499C201.572 151.411 201.36 151.343 201.248 151.295L201.452 150.335C201.58 150.383 201.784 150.455 202.064 150.551C202.344 150.647 202.716 150.695 203.18 150.695ZM206.735 148.391C206.735 147.839 206.815 147.359 206.975 146.951C207.135 146.535 207.347 146.191 207.611 145.919C207.875 145.647 208.179 145.443 208.523 145.307C208.867 145.171 209.219 145.103 209.579 145.103C210.419 145.103 211.063 145.367 211.511 145.895C211.959 146.415 212.183 147.211 212.183 148.283C212.183 148.331 212.183 148.395 212.183 148.475C212.183 148.547 212.179 148.615 212.171 148.679H207.899C207.947 149.327 208.135 149.819 208.463 150.155C208.791 150.491 209.303 150.659 209.999 150.659C210.391 150.659 210.719 150.627 210.983 150.563C211.255 150.491 211.459 150.423 211.595 150.359L211.751 151.295C211.615 151.367 211.375 151.443 211.031 151.523C210.695 151.603 210.311 151.643 209.879 151.643C209.335 151.643 208.863 151.563 208.463 151.403C208.071 151.235 207.747 151.007 207.491 150.719C207.235 150.431 207.043 150.091 206.915 149.699C206.795 149.299 206.735 148.863 206.735 148.391ZM211.019 147.779C211.027 147.275 210.899 146.863 210.635 146.543C210.379 146.215 210.023 146.051 209.567 146.051C209.311 146.051 209.083 146.103 208.883 146.207C208.691 146.303 208.527 146.431 208.391 146.591C208.255 146.751 208.147 146.935 208.067 147.143C207.995 147.351 207.947 147.563 207.923 147.779H211.019Z" fill="#1C3B45" transform="matrix(0.9999999999999999, 0, 0, 0.9999999999999999, -3.552713678800501e-15, 0)"/>
  <rect x="0.5" y="0.5" width="384" height="211.999" rx="6.5" stroke="#D8D8D8" transform="matrix(0.9999999999999999, 0, 0, 0.9999999999999999, -3.552713678800501e-15, 0)"/>
  <text style="white-space: pre; fill: rgb(51, 51, 51); font-family: Arial, sans-serif; font-size: 9.1px;" x="140.173" y="97.364" transform="matrix(1.2022609710693357, 0, 0, 1.128071069717407, -38.00961741819407, -10.941390200576034)">Upload Proof of Payment</text>
</svg>